<?xml version="1.0" encoding="UTF-8"?>
<svg version="1.1" xmlns="http://www.w3.org/2000/svg" width="792" height="246">
<path d="M0 0 C1.2681958 -0.00511093 2.5363916 -0.01022186 3.84301758 -0.01548767 C7.28944009 -0.02875932 10.73575215 -0.02946971 14.18219519 -0.02692437 C17.07445262 -0.02584656 19.96668844 -0.03075854 22.8589412 -0.03552979 C29.69015729 -0.04658405 36.52131838 -0.04708549 43.35253906 -0.04101562 C50.36614395 -0.03497891 57.37954808 -0.04728851 64.39311874 -0.06858569 C70.44616042 -0.08628055 76.49913865 -0.09219071 82.5522052 -0.08894795 C86.1535916 -0.08714747 89.75483474 -0.08964619 93.35619736 -0.10366249 C97.37821965 -0.11873355 101.39984095 -0.10920229 105.421875 -0.09765625 C106.5921524 -0.10529999 107.76242981 -0.11294373 108.96817017 -0.12081909 C118.99386926 -0.05761514 129.26146818 1.19938317 138.09033203 6.2746582 C138.98236328 6.7696582 139.87439453 7.2646582 140.79345703 7.7746582 C142.84033203 9.2746582 142.84033203 9.2746582 143.84033203 12.2746582 C145.17202431 12.61448839 146.50556266 12.94712254 147.84033203 13.2746582 C156.16270947 21.22666806 160.79839497 33.14155599 161.12158203 44.4152832 C161.17765625 46.14391602 161.17765625 46.14391602 161.23486328 47.9074707 C161.30563098 50.33454081 161.37593767 52.76162439 161.44580078 55.1887207 C161.501875 56.90961914 161.501875 56.90961914 161.55908203 58.6652832 C161.589375 59.71748047 161.61966797 60.76967773 161.65087891 61.85375977 C161.57254332 64.2234641 161.57254332 64.2234641 162.84033203 65.2746582 C162.94092972 68.22175236 162.97648253 71.14544962 162.96972656 74.09301758 C162.97235504 75.48071098 162.97235504 75.48071098 162.97503662 76.8964386 C162.9794567 79.97044726 162.9765166 83.04439891 162.97314453 86.1184082 C162.97381753 88.24450695 162.97478751 90.37060562 162.9760437 92.4967041 C162.97752089 96.95899181 162.97536545 101.42125953 162.97070312 105.88354492 C162.96500583 111.61736389 162.96828472 117.35113606 162.97427559 123.08495331 C162.97788064 127.47711544 162.97674287 131.86926638 162.9741478 136.26142883 C162.97347837 138.37624619 162.97430748 140.49106455 162.97662735 142.60588074 C162.97915297 145.55604766 162.97531457 148.50613767 162.96972656 151.45629883 C162.97175079 152.33945267 162.97377502 153.22260651 162.9758606 154.13252258 C162.95459437 160.16039586 162.95459437 160.16039586 161.84033203 161.2746582 C161.67835374 163.88130885 161.56113202 166.47800101 161.46533203 169.0871582 C161.10032351 176.95889876 160.41881081 185.11770064 156.84033203 192.2746582 C156.18033203 192.2746582 155.52033203 192.2746582 154.84033203 192.2746582 C154.74107422 192.85344727 154.64181641 193.43223633 154.53955078 194.02856445 C152.19850643 201.54867897 142.78266061 208.66651158 136.18017578 212.36450195 C131.63062324 214.13419435 126.76593981 214.82516397 121.97314453 215.66137695 C118.98523366 215.94372656 118.98523366 215.94372656 117.84033203 217.2746582 C116.45859687 217.38432454 115.07137621 217.42588444 113.68536377 217.43960571 C112.78878052 217.45083969 111.89219727 217.46207367 110.96844482 217.47364807 C109.97645081 217.48097458 108.98445679 217.48830109 107.96240234 217.49584961 C106.9230957 217.5073555 105.88378906 217.51886139 104.81298828 217.53071594 C101.34817525 217.56762887 97.8833443 217.59716882 94.41845703 217.6262207 C92.00396477 217.64934628 89.58947503 217.6727367 87.17498779 217.69638062 C82.09047802 217.74497469 77.00595163 217.78985563 71.92138672 217.83227539 C65.46081597 217.88652953 59.00038599 217.95048316 52.53993607 218.01745033 C47.5379387 218.06805747 42.53590155 218.11295856 37.53383636 218.15629196 C35.15642361 218.17761656 32.77902603 218.2007205 30.40164948 218.2257576 C18.84623222 218.34472917 7.31953356 218.36616482 -4.22705078 217.8425293 C-5.12016338 217.80298441 -6.01327599 217.76343952 -6.93345261 217.7226963 C-13.03153193 217.40279425 -13.03153193 217.40279425 -14.15966797 216.2746582 C-16.26115808 215.88493821 -18.36601617 215.51334343 -20.47216797 215.1496582 C-34.03662871 212.32603576 -42.95299794 204.97339864 -50.64404297 193.7043457 C-53.41509952 189.26208494 -54.46600217 185.48233964 -54.15966797 180.2746582 C-54.81966797 180.2746582 -55.47966797 180.2746582 -56.15966797 180.2746582 C-56.97605398 176.69456057 -57.29049428 173.38066539 -57.30683899 169.71166992 C-57.31399429 168.60450119 -57.3211496 167.49733246 -57.32852173 166.35661316 C-57.33121063 165.1513649 -57.33389954 163.94611664 -57.33666992 162.7043457 C-57.34324112 161.42727249 -57.34981232 160.15019928 -57.35658264 158.83442688 C-57.37755974 154.60618329 -57.38798272 150.37793962 -57.39794922 146.1496582 C-57.40199989 144.68852724 -57.4061169 143.22739646 -57.4102993 141.76626587 C-57.42934122 134.8961055 -57.44357136 128.02595578 -57.45191127 121.15577412 C-57.46166423 113.25409662 -57.48793682 105.35270069 -57.52841216 97.45112228 C-57.5586984 91.32602593 -57.57339213 85.2010097 -57.57669228 79.07584 C-57.57902957 75.42622606 -57.58781481 71.77691323 -57.61315346 68.12738037 C-57.64104104 64.04478637 -57.63656514 59.96281053 -57.62963867 55.88012695 C-57.64244873 54.69107254 -57.65525879 53.50201813 -57.66845703 52.27693176 C-57.58459226 38.63251602 -53.15687126 26.26906203 -45.15966797 15.2746582 C-31.36824265 2.94021414 -18.08939211 -0.03816229 0 0 Z " fill="#3B96FE" transform="translate(74.15966796875,16.725341796875)"/>
<path d="M0 0 C2.81256281 -0.02684312 5.62487241 -0.04676188 8.4375 -0.0625 C9.23994141 -0.07087891 10.04238281 -0.07925781 10.86914062 -0.08789062 C12.91295221 -0.0965143 14.95683902 -0.0522815 17 0 C17.495 0.495 17.495 0.495 18 1 C19.33955286 1.27147331 20.6899734 1.48993624 22.04296875 1.68359375 C22.86990234 1.80669922 23.69683594 1.92980469 24.54882812 2.05664062 C26.28825807 2.30770564 28.02783857 2.55773012 29.76757812 2.80664062 C34.37201263 3.49392281 38.62030501 4.34417424 43 6 C43 6.66 43 7.32 43 8 C43.71027344 8.18175781 44.42054688 8.36351562 45.15234375 8.55078125 C46.07144531 8.80214844 46.99054688 9.05351563 47.9375 9.3125 C48.85402344 9.55613281 49.77054688 9.79976562 50.71484375 10.05078125 C51.84599609 10.52064453 51.84599609 10.52064453 53 11 C53.495 12.485 53.495 12.485 54 14 C54.7425 14.28875 55.485 14.5775 56.25 14.875 C63.3952664 17.79806353 69.45300918 26.63717345 73.23828125 33.12109375 C74 35 74 35 74 38 C74.66 38 75.32 38 76 38 C76.98345064 40.67079233 77.95813444 43.34404138 78.91796875 46.0234375 C79.53725288 47.72702778 80.17452268 49.42485611 80.86328125 51.1015625 C88.01197982 69.50487882 86.9729493 96.16732911 82 115 C81.34 115 80.68 115 80 115 C80.0825 115.78375 80.165 116.5675 80.25 117.375 C79.71332374 125.15680579 75.57199238 133.70813588 71 140 C70.01 140.33 69.02 140.66 68 141 C67.78150391 141.88945312 67.78150391 141.88945312 67.55859375 142.796875 C66.79935149 145.79136895 65.25567617 147.10838132 63.0625 149.25 C62.35222656 149.95640625 61.64195312 150.6628125 60.91015625 151.390625 C59 153 59 153 57 153 C57 153.66 57 154.32 57 155 C55.33315189 155.95248463 53.66582861 156.90414755 51.99609375 157.8515625 C50.72905318 158.58054474 49.47003612 159.3238021 48.22265625 160.0859375 C42.72830133 163.39999285 37.47073112 165.39216552 31 165 C31 165.66 31 166.32 31 167 C13.41425309 169.86696311 -5.25452571 171.19174054 -22 164 C-23.49754113 163.4309861 -24.99753614 162.86838541 -26.5 162.3125 C-27.655 161.879375 -28.81 161.44625 -30 161 C-30 160.34 -30 159.68 -30 159 C-30.71285156 158.92007813 -31.42570312 158.84015625 -32.16015625 158.7578125 C-40.09787176 156.63963257 -47.19983242 148.49434438 -52 142 C-52.50015625 141.32453125 -53.0003125 140.6490625 -53.515625 139.953125 C-59.93116259 130.81584419 -63.37719028 121.73389861 -65.421875 110.7734375 C-65.71422004 108.1031359 -65.71422004 108.1031359 -67 107 C-68.15257241 99.33782849 -68.14953236 91.7358722 -68.125 84 C-68.12886719 82.78054687 -68.13273437 81.56109375 -68.13671875 80.3046875 C-68.1296771 73.78411786 -67.87744452 67.4624485 -67 61 C-66.34 61 -65.68 61 -65 61 C-64.97421875 60.32195312 -64.9484375 59.64390625 -64.921875 58.9453125 C-64.49311237 51.90970751 -62.96871493 46.36458308 -60 40 C-59.72414063 39.33484375 -59.44828125 38.6696875 -59.1640625 37.984375 C-55.10515089 28.82389558 -47.37203665 19.549789 -39 14 C-38.01 14 -37.02 14 -36 14 C-35.67 13.01 -35.34 12.02 -35 11 C-24.56582155 4.09185427 -12.3949599 1.24455098 0 2 C0 1.34 0 0.68 0 0 Z M-8 33 C-9.85625 33.680625 -9.85625 33.680625 -11.75 34.375 C-17.05445026 37.02722513 -20.5380044 41.2557838 -24 46 C-24 46.66 -24 47.32 -24 48 C-24.66 48 -25.32 48 -26 48 C-26.62696495 49.85350317 -27.25146966 51.70783859 -27.875 53.5625 C-28.22304688 54.59503906 -28.57109375 55.62757812 -28.9296875 56.69140625 C-29.28289062 57.78324219 -29.63609375 58.87507813 -30 60 C-30.51989502 61.576604 -30.51989502 61.576604 -31.05029297 63.18505859 C-32.09327284 67.37467386 -32.28933035 71.05855002 -32.265625 75.34765625 C-32.26753845 76.12257919 -32.2694519 76.89750214 -32.27142334 77.69590759 C-32.27277636 79.32372363 -32.26914204 80.95155078 -32.26074219 82.5793457 C-32.25001512 85.05900449 -32.26067484 87.53794134 -32.2734375 90.01757812 C-32.27211603 91.60677242 -32.2695539 93.19596626 -32.265625 94.78515625 C-32.26967346 95.51968521 -32.27372192 96.25421417 -32.27789307 97.01100159 C-32.2382617 101.39700968 -31.59392758 104.92181291 -30 109 C-28.66666667 113 -27.33333333 117 -26 121 C-25.34 121 -24.68 121 -24 121 C-23.731875 121.763125 -23.46375 122.52625 -23.1875 123.3125 C-22.04865495 125.88988618 -21.18583329 127.26954864 -19 129 C-18.34 129 -17.68 129 -17 129 C-16.67 129.99 -16.34 130.98 -16 132 C-13.81990889 133.4322829 -13.81990889 133.4322829 -11.1875 134.625 C-10.31480469 135.05039063 -9.44210937 135.47578125 -8.54296875 135.9140625 C-4.57891802 137.60685221 -1.24455401 138.12726217 3.0625 138.1328125 C4.02414062 138.13410156 4.98578125 138.13539063 5.9765625 138.13671875 C7.47316406 138.13091797 7.47316406 138.13091797 9 138.125 C9.99773437 138.12886719 10.99546875 138.13273437 12.0234375 138.13671875 C12.98507812 138.13542969 13.94671875 138.13414062 14.9375 138.1328125 C16.25041016 138.13112061 16.25041016 138.13112061 17.58984375 138.12939453 C19.86369448 138.00731786 21.82013036 137.63663826 24 137 C24 136.34 24 135.68 24 135 C24.8353125 134.83177734 24.8353125 134.83177734 25.6875 134.66015625 C34.1873159 132.46341329 38.63043241 126.9986453 43 119.625 C44.17799766 117.00092707 44.17799766 117.00092707 44 114 C44.66 114 45.32 114 46 114 C50.92129842 92.96730795 53.2421622 65.49904249 41.62109375 46.28515625 C39.3373414 43.06589089 37.02457401 40.54339178 34 38 C33.34 38 32.68 38 32 38 C32 37.34 32 36.68 32 36 C18.59991958 30.44584192 5.94958813 26.95796283 -8 33 Z " fill="#FDFDFE" transform="translate(484,38)"/>
<path d="M0 0 C0.96755722 -0.00281982 1.93511444 -0.00563965 2.93199158 -0.00854492 C4.00216019 -0.00652069 5.0723288 -0.00449646 6.17492676 -0.00241089 C7.29512711 -0.00416321 8.41532745 -0.00591553 9.56947327 -0.00772095 C13.29279098 -0.01214213 17.01606164 -0.00920053 20.73937988 -0.00582886 C23.31388356 -0.00650182 25.88838717 -0.00747178 28.46289062 -0.00872803 C33.86674663 -0.01020536 39.27058478 -0.00814389 44.67443848 -0.00338745 C50.9302446 0.00205514 57.18601815 0.00029247 63.44182348 -0.00521386 C69.44914038 -0.0102907 75.45644128 -0.00976344 81.46376038 -0.00683212 C84.02515162 -0.00616259 86.58654368 -0.00699219 89.14793396 -0.00931168 C92.72075641 -0.01183663 96.29351532 -0.00799982 99.86633301 -0.00241089 C101.47158592 -0.00544724 101.47158592 -0.00544724 103.10926819 -0.00854492 C104.56060402 -0.00431519 104.56060402 -0.00431519 106.04125977 0 C106.8870887 0.00037703 107.73291763 0.00075405 108.60437775 0.0011425 C110.52062988 0.12698364 110.52062988 0.12698364 111.52062988 1.12698364 C111.83644025 5.27314897 111.87763148 9.42328825 111.92565918 13.58035278 C111.94711728 14.9741614 111.98107487 16.36783979 112.02819824 17.76101685 C112.49628894 31.73210819 112.49628894 31.73210819 107.0802002 37.60232544 C106.56554199 38.10546265 106.05088379 38.60859985 105.52062988 39.12698364 C104.61461006 40.20181226 103.71812931 41.28478197 102.83312988 42.37698364 C101.68844238 43.73823364 101.68844238 43.73823364 100.52062988 45.12698364 C99.96375488 45.91073364 99.40687988 46.69448364 98.83312988 47.50198364 C98.40000488 48.03823364 97.96687988 48.57448364 97.52062988 49.12698364 C96.86062988 49.12698364 96.20062988 49.12698364 95.52062988 49.12698364 C95.14937988 50.18465942 95.14937988 50.18465942 94.77062988 51.26370239 C93.3595933 54.49585807 91.59555729 57.09027267 89.52062988 59.93948364 C88.81937988 60.91530396 88.11812988 61.89112427 87.39562988 62.89651489 C86.77687988 63.63256958 86.15812988 64.36862427 85.52062988 65.12698364 C84.86062988 65.12698364 84.20062988 65.12698364 83.52062988 65.12698364 C83.29375488 65.82823364 83.06687988 66.52948364 82.83312988 67.25198364 C81.23256904 70.75797405 79.04774243 73.23004975 76.52062988 76.12698364 C75.96375488 76.91073364 75.40687988 77.69448364 74.83312988 78.50198364 C74.40000488 79.03823364 73.96687988 79.57448364 73.52062988 80.12698364 C72.86062988 80.12698364 72.20062988 80.12698364 71.52062988 80.12698364 C71.31437988 80.80760864 71.10812988 81.48823364 70.89562988 82.18948364 C69.33235217 85.52921329 67.34759928 87.79074777 64.86047363 90.47854614 C63.30016433 92.2000956 63.30016433 92.2000956 62.52062988 95.12698364 C61.53062988 95.78698364 60.54062988 96.44698364 59.52062988 97.12698364 C59.00500488 97.99323364 58.48937988 98.85948364 57.95812988 99.75198364 C57.48375488 100.53573364 57.00937988 101.31948364 56.52062988 102.12698364 C55.86062988 102.12698364 55.20062988 102.12698364 54.52062988 102.12698364 C54.27184082 102.83596802 54.02305176 103.54495239 53.76672363 104.27542114 C52.37687987 107.45594135 50.6458042 109.96334015 48.58312988 112.75198364 C47.89348145 113.69299927 47.20383301 114.63401489 46.49328613 115.60354614 C44.52062988 118.12698364 44.52062988 118.12698364 43.05969238 119.57620239 C40.71280214 121.94096236 38.80805212 124.64030664 36.83312988 127.31448364 C36.41740723 127.87329224 36.00168457 128.43210083 35.57336426 129.00784302 C34.5535919 130.37926101 33.53681087 131.75290244 32.52062988 133.12698364 C36.09787456 134.31939853 38.93698092 134.23962905 42.7142334 134.22463989 C43.44297668 134.22317963 44.17171997 134.22171936 44.92254639 134.22021484 C46.5038324 134.216411 48.08511415 134.21029669 49.66638374 134.20214844 C52.16654945 134.18939687 54.66666218 134.18287251 57.16685486 134.17800903 C62.47230362 134.16657545 67.77770878 134.14732743 73.08312988 134.12698364 C79.23343022 134.10341715 85.38370568 134.0830178 91.53404045 134.07104492 C94.0014108 134.06454457 96.4687053 134.05203744 98.93605042 134.03933716 C100.44283989 134.03570589 101.94963008 134.032354 103.4564209 134.02932739 C104.775298 134.02409058 106.09417511 134.01885376 107.45301819 134.01345825 C110.52062988 134.12698364 110.52062988 134.12698364 112.52062988 135.12698364 C112.54954535 139.58530346 112.5673997 144.04359934 112.58312988 148.50198364 C112.59150879 149.77299927 112.5998877 151.04401489 112.60852051 152.35354614 C112.61174316 153.56526489 112.61496582 154.77698364 112.61828613 156.02542114 C112.62352295 157.14609985 112.62875977 158.26677856 112.63415527 159.42141724 C112.52062988 162.12698364 112.52062988 162.12698364 111.52062988 164.12698364 C96.31757556 164.19702815 81.11452867 164.24994943 65.9113493 164.28242016 C58.8524251 164.29789684 51.7936011 164.31900153 44.73474121 164.353302 C37.92666991 164.38636811 31.11870293 164.40382098 24.31055641 164.41161537 C21.70893525 164.41717228 19.10731999 164.42802305 16.50574303 164.44417381 C12.8708486 164.46584856 9.23638874 164.46895469 5.60144043 164.46755981 C4.51818985 164.47834564 3.43493927 164.48913147 2.31886292 164.50024414 C1.3302829 164.49612015 0.34170288 164.49199615 -0.67683411 164.48774719 C-1.53686696 164.49051257 -2.39689981 164.49327795 -3.28299427 164.49612713 C-5.98050045 164.04275899 -6.86197648 163.30099221 -8.47937012 161.12698364 C-9.13370612 156.74154866 -8.94237545 152.30563688 -8.91687012 147.87698364 C-8.93685059 146.66139771 -8.95683105 145.44581177 -8.97741699 144.19338989 C-8.97211741 134.47395582 -7.18635125 129.67755153 -0.47937012 122.56448364 C1.88659878 119.99622 4.0392254 117.52356446 5.89562988 114.56448364 C6.43187988 113.76010864 6.96812988 112.95573364 7.52062988 112.12698364 C8.18062988 112.12698364 8.84062988 112.12698364 9.52062988 112.12698364 C9.60312988 111.50823364 9.68562988 110.88948364 9.77062988 110.25198364 C10.75688427 107.45759621 11.95453387 107.41003165 14.52062988 106.12698364 C14.63535645 105.57526489 14.75008301 105.02354614 14.86828613 104.45510864 C15.81194492 101.08732039 17.86574779 98.61443502 19.95812988 95.87698364 C20.36611816 95.32268677 20.77410645 94.76838989 21.19445801 94.19729614 C22.25016297 92.79887456 23.38050576 91.45747712 24.52062988 90.12698364 C25.18062988 90.12698364 25.84062988 90.12698364 26.52062988 90.12698364 C26.74750488 89.42573364 26.97437988 88.72448364 27.20812988 88.00198364 C28.5037129 85.1640399 30.09564604 83.15895566 32.10534668 80.79934692 C34.50321861 77.96591192 36.78755254 75.04341755 39.08312988 72.12698364 C39.78599121 71.24139771 39.78599121 71.24139771 40.50305176 70.33792114 C42.70477166 67.54189083 44.80646714 64.74413068 46.73547363 61.75198364 C48.52062988 59.12698364 48.52062988 59.12698364 50.52062988 58.12698364 C51.53170379 56.46701156 52.52906174 54.79868051 53.52062988 53.12698364 C55.15311618 50.87561449 56.86711892 48.69008496 58.58312988 46.50198364 C60.9828844 43.42697352 63.35514085 40.3752172 65.52062988 37.12698364 C66.18062988 37.12698364 66.84062988 37.12698364 67.52062988 37.12698364 C67.83000488 36.34323364 68.13937988 35.55948364 68.45812988 34.75198364 C69.52062988 32.12698364 69.52062988 32.12698364 70.52062988 30.12698364 C69.58324478 30.11667618 68.64585968 30.10636871 67.68006897 30.0957489 C58.86534346 29.99818192 50.05069118 29.89546413 41.23608494 29.78764439 C36.70392402 29.73237442 32.1717567 29.67894806 27.63952637 29.62966919 C23.26934441 29.58208553 18.8992434 29.52974517 14.52915764 29.47404289 C12.85814353 29.45359206 11.1871072 29.43488359 9.51605415 29.41790962 C7.18359428 29.39392572 4.85128881 29.36386344 2.5189209 29.33230591 C1.82121078 29.32655045 1.12350067 29.32079498 0.40464783 29.31486511 C-4.36531796 29.2410358 -4.36531796 29.2410358 -5.47937012 28.12698364 C-5.57920069 26.13941337 -5.61017765 24.14830845 -5.61218262 22.15823364 C-5.61347168 20.94780396 -5.61476074 19.73737427 -5.61608887 18.49026489 C-5.61222168 17.21538208 -5.60835449 15.94049927 -5.60437012 14.62698364 C-5.6082373 13.35210083 -5.61210449 12.07721802 -5.61608887 10.76370239 C-5.61415527 8.94805786 -5.61415527 8.94805786 -5.61218262 7.09573364 C-5.61105469 5.97618286 -5.60992676 4.85663208 -5.60876465 3.70315552 C-5.39311671 -0.59027295 -3.86042881 0.00172077 0 0 Z " fill="#FDFDFE" transform="translate(286.4793701171875,40.873016357421875)"/>
<path d="M0 0 C1.05445313 -0.00773437 2.10890625 -0.01546875 3.1953125 -0.0234375 C8.8361502 -0.00930006 13.63324164 0.3328348 19 2.25 C20.23621094 2.67539063 21.47242188 3.10078125 22.74609375 3.5390625 C23.96425781 3.97992188 25.18242188 4.42078125 26.4375 4.875 C27.67371094 5.32101563 28.90992188 5.76703125 30.18359375 6.2265625 C31.11300781 6.56429687 32.04242187 6.90203125 33 7.25 C33 7.91 33 8.57 33 9.25 C33.94875 9.4975 34.8975 9.745 35.875 10 C39.47798453 11.44119381 39.45796897 11.9603338 41 15.25 C42.175625 15.683125 42.175625 15.683125 43.375 16.125 C48.87002753 18.4800118 51.46366893 25.7041248 54.125 30.875 C54.47175781 31.51050781 54.81851563 32.14601563 55.17578125 32.80078125 C63.12346049 48.30027832 62.46522157 72.32664525 58.375 88.875 C56.35119497 95.07017295 53.44400419 100.72811328 50 106.25 C49.34 106.25 48.68 106.25 48 106.25 C47.62875 107.425625 47.62875 107.425625 47.25 108.625 C45.79075497 111.68941457 44.94985044 111.86725761 42 113.25 C41.71125 113.91 41.4225 114.57 41.125 115.25 C40 117.25 40 117.25 36.875 118.5 C35.451875 118.87125 35.451875 118.87125 34 119.25 C34 119.91 34 120.57 34 121.25 C32.67935547 121.75660156 32.67935547 121.75660156 31.33203125 122.2734375 C30.17058594 122.71945313 29.00914062 123.16546875 27.8125 123.625 C26.66394531 124.06585938 25.51539063 124.50671875 24.33203125 124.9609375 C22.31580264 125.7409556 20.30668131 126.54022643 18.3125 127.375 C6.77375456 131.74101179 -9.23135269 129.74637973 -21 127.25 C-21 126.59 -21 125.93 -21 125.25 C-21.9075 125.229375 -22.815 125.20875 -23.75 125.1875 C-32.25980022 123.97675607 -41.17551791 117.41509508 -47 111.25 C-50 106.99193548 -50 106.99193548 -50 104.25 C-50.66 104.25 -51.32 104.25 -52 104.25 C-53.1382047 101.79707758 -54.26039473 99.33863148 -55.375 96.875 C-55.69210937 96.19566406 -56.00921875 95.51632813 -56.3359375 94.81640625 C-60.71157415 85.06238289 -61.36454944 75.60172826 -61.3125 65 C-61.30686035 63.80358887 -61.3012207 62.60717773 -61.29541016 61.37451172 C-61.11508691 48.26447594 -59.67611633 32.80283013 -50.4609375 22.53515625 C-49.97882812 22.11105469 -49.49671875 21.68695313 -49 21.25 C-48.21625 20.46625 -47.4325 19.6825 -46.625 18.875 C-45.75875 18.00875 -44.8925 17.1425 -44 16.25 C-42.9171875 15.0434375 -42.9171875 15.0434375 -41.8125 13.8125 C-35.0946678 7.69180844 -27.71165801 4.46505723 -19 2.25 C-17.99324219 1.899375 -16.98648438 1.54875 -15.94921875 1.1875 C-10.73361825 -0.30689302 -5.38068864 -0.03946715 0 0 Z M-18.34765625 34.61328125 C-23.53078269 39.74739467 -25.860837 45.42301737 -26.125 52.6875 C-26.08375 53.533125 -26.0425 54.37875 -26 55.25 C-26.66 55.25 -27.32 55.25 -28 55.25 C-28 61.52 -28 67.79 -28 74.25 C-27.34 74.25 -26.68 74.25 -26 74.25 C-25.96261719 74.806875 -25.92523437 75.36375 -25.88671875 75.9375 C-25.30621894 82.67585075 -24.57101554 88.92384308 -19.375 93.625 C-18.59125 94.16125 -17.8075 94.6975 -17 95.25 C-16.67 95.91 -16.34 96.57 -16 97.25 C-7.01255124 101.61533226 3.54152849 101.30105101 12.8671875 98.24609375 C15.81821652 96.86786591 17.28248463 94.96939934 19 92.25 C19.66 91.92 20.32 91.59 21 91.25 C29.24953239 73.78419314 27.65197443 57.30548089 22.140625 39.46875 C19.41592351 34.16864574 13.55626692 31.08511509 8.05859375 29.2890625 C-1.65693055 27.33835749 -10.6017539 28.07124102 -18.34765625 34.61328125 Z " fill="#FDFDFE" transform="translate(721,77.75)"/>
<path d="M0 0 C0.71735321 -0.0049649 1.43470642 -0.00992981 2.17379761 -0.01504517 C4.55459548 -0.02968509 6.93532656 -0.03647439 9.31616211 -0.04199219 C10.97326153 -0.04774537 12.63036094 -0.05350308 14.28746033 -0.05926514 C17.76862905 -0.06978253 21.24977465 -0.07561929 24.73095703 -0.07910156 C29.17380368 -0.08456557 33.61634064 -0.10854524 38.05909061 -0.13707352 C41.48651491 -0.1557836 44.91386617 -0.16091009 48.3413372 -0.16243744 C49.97786577 -0.16544936 51.61439351 -0.17342812 53.25087166 -0.18662262 C64.40795833 -0.27010315 74.17231508 -0.01455887 83.23413086 7.37988281 C88.38740837 12.48834922 90.3192865 17.35756669 90.40600586 24.59863281 C90.23483623 29.75347207 90.23483623 29.75347207 89.03100586 32.16113281 C88.93870435 33.52894527 88.90587905 34.9010497 88.9050293 36.27197266 C88.90122253 37.11980316 88.89741577 37.96763367 88.89349365 38.84115601 C88.89246643 39.75885773 88.89143921 40.67655945 88.89038086 41.62207031 C88.8720554 43.55697794 88.85248533 45.49187411 88.83178711 47.42675781 C88.8027883 50.48392065 88.78100519 53.54034681 88.78051758 56.59765625 C88.77718788 59.54396269 88.74266845 62.48855999 88.70288086 65.43457031 C88.70995056 66.34822357 88.71702026 67.26187683 88.7243042 68.20321655 C88.70788879 69.05735138 88.69147339 69.91148621 88.67456055 70.79150391 C88.67091492 71.54047943 88.66726929 72.28945496 88.66351318 73.06112671 C87.66268572 76.3840033 85.96785035 77.40470548 83.03100586 79.16113281 C80.32291264 79.54824582 78.02456898 79.70953706 75.32250977 79.67871094 C74.56249161 79.68572021 73.80247345 79.69272949 73.01942444 79.69995117 C70.51509707 79.71750911 68.0119066 79.70591463 65.50756836 79.69238281 C63.76028223 79.69507894 62.01299756 79.69896236 60.26571655 79.70397949 C56.60562846 79.70987201 52.94593126 79.70132179 49.28588867 79.68261719 C44.60621718 79.65986138 39.92746508 79.67293055 35.24782753 79.69690704 C31.63942614 79.71140069 28.03124059 79.70674218 24.42283249 79.69639587 C22.69814316 79.69373667 20.97343392 79.69696987 19.24876785 79.70631409 C16.83141903 79.71653508 14.4155317 79.70090164 11.99829102 79.67871094 C10.93976173 79.69085632 10.93976173 79.69085632 9.85984802 79.70324707 C3.27818976 79.59196719 -0.68842879 77.07044334 -5.65649414 72.91113281 C-11.29441918 66.2065733 -12.56452145 60.16930247 -12.65649414 51.53613281 C-12.69891998 49.71053613 -12.74441146 47.88500769 -12.79321289 46.05957031 C-12.80441162 45.26212402 -12.81561035 44.46467773 -12.82714844 43.64306641 C-12.92635828 41.08518101 -12.92635828 41.08518101 -13.46289062 38.29296875 C-14.32983034 32.92823038 -14.27137922 27.53588829 -14.3190918 22.11083984 C-14.33573837 20.72395143 -14.36314206 19.33715177 -14.40112305 17.95068359 C-14.45587299 15.93540964 -14.47462649 13.91925921 -14.49243164 11.90332031 C-14.51225098 10.70562012 -14.53207031 9.50791992 -14.55249023 8.27392578 C-13.96899414 5.16113281 -13.96899414 5.16113281 -11.5612793 2.80224609 C-7.35537154 0.13958722 -5.0213205 0.02635772 0 0 Z " fill="#DDE9FC" transform="translate(67.968994140625,83.8388671875)"/>
<path d="M0 0 C0.66209473 -0.00095673 1.32418945 -0.00191345 2.00634766 -0.00289917 C3.40852961 -0.00358076 4.8107147 -0.00172792 6.21289062 0.00244141 C8.36595713 0.00779004 10.51881502 0.0024958 12.671875 -0.00390625 C14.03125046 -0.00324546 15.3906258 -0.00196429 16.75 0 C18.61785156 0.00169189 18.61785156 0.00169189 20.5234375 0.00341797 C23.375 0.1328125 23.375 0.1328125 24.375 1.1328125 C24.47703523 2.91835354 24.50853871 4.70795049 24.51303101 6.49639893 C24.51848434 7.6601152 24.52393768 8.82383148 24.52955627 10.02281189 C24.5305986 11.31111404 24.53164093 12.5994162 24.53271484 13.92675781 C24.53738075 15.28823512 24.54252394 16.64971086 24.54811096 18.01118469 C24.55941135 20.95010482 24.56783622 23.88901469 24.57423019 26.82794952 C24.58489044 31.47532451 24.60513076 36.12262618 24.62734985 40.7699585 C24.68933796 53.98771806 24.74327292 67.20547409 24.77636719 80.42333984 C24.79471202 87.71811699 24.82364833 95.01277212 24.8643719 102.30745959 C24.8854486 106.16916889 24.90090004 110.03072436 24.90317917 113.8924942 C24.90532658 117.52705755 24.92120506 121.16130093 24.94756889 124.79576683 C24.9581873 126.76404896 24.9540085 128.73239351 24.9493866 130.70069885 C24.96047958 131.87569443 24.97157257 133.05069 24.98300171 134.2612915 C24.98631186 135.28041752 24.989622 136.29954353 24.99303246 137.34955215 C25.43921251 140.60070603 26.45213994 142.49507645 28.375 145.1328125 C30.94393838 146.41728169 33.14076337 146.46258394 36 146.6953125 C37.00289062 146.77910156 38.00578125 146.86289063 39.0390625 146.94921875 C39.80992187 147.00980469 40.58078125 147.07039062 41.375 147.1328125 C42.74966321 151.77230084 42.79457527 156.52920841 43.09375 161.33203125 C43.06681513 164.0356 43.06681513 164.0356 44.375 165.1328125 C44.41592937 167.46578683 44.41741723 169.79986475 44.375 172.1328125 C43.715 172.1328125 43.055 172.1328125 42.375 172.1328125 C42.375 172.7928125 42.375 173.4528125 42.375 174.1328125 C31.88626152 176.97721615 21.86373848 176.97721615 11.375 174.1328125 C11.375 173.4728125 11.375 172.8128125 11.375 172.1328125 C10.63765625 172.03613281 9.9003125 171.93945312 9.140625 171.83984375 C6.00709497 171.03875768 4.52347425 169.95788401 2.125 167.8203125 C1.43921875 167.22605469 0.7534375 166.63179687 0.046875 166.01953125 C-1.72950969 164.01487282 -2.23227845 162.74903108 -2.625 160.1328125 C-3.285 160.1328125 -3.945 160.1328125 -4.625 160.1328125 C-7.91479618 152.17050294 -8.04056421 144.88290601 -7.98144531 136.35742188 C-7.98223741 134.87990193 -7.98433842 133.40238219 -7.98764038 131.92486572 C-7.99274526 127.93775447 -7.97930161 123.95090418 -7.96211338 119.96383476 C-7.94701924 115.78697241 -7.94825019 111.6101126 -7.94744873 107.43322754 C-7.94376512 100.4293983 -7.92883675 93.42566761 -7.90625 86.421875 C-7.87728481 77.42168708 -7.86701696 68.42157804 -7.8625679 59.42134857 C-7.85859541 51.68485609 -7.8461002 43.94838087 -7.83222103 36.21190071 C-7.82811784 33.72221541 -7.82519458 31.23253073 -7.82242584 28.74284363 C-7.81754673 24.84237048 -7.80736706 20.94194562 -7.79298782 17.04149628 C-7.78845219 15.60673712 -7.78562319 14.17197145 -7.78458023 12.73720551 C-7.78284393 10.78715566 -7.77434636 8.83711525 -7.76544189 6.88708496 C-7.76246723 5.79354454 -7.75949257 4.70000412 -7.75642776 3.57332611 C-7.49261676 -1.3254435 -4.20402542 0.00380799 0 0 Z " fill="#FDFDFE" transform="translate(603.625,30.8671875)"/>
<path d="M0 0 C3.11005944 1.09766804 4.22866304 1.59747499 6.1875 4.125 C6.55499268 6.18067932 6.55499268 6.18067932 6.54394531 8.56469727 C6.54694641 9.45894913 6.54994751 10.35320099 6.55303955 11.27455139 C6.54069275 12.23711349 6.52834595 13.1996756 6.515625 14.19140625 C6.51375183 15.18124008 6.51187866 16.17107391 6.50994873 17.19090271 C6.50322594 19.28314584 6.48930696 21.37537636 6.46875 23.4675293 C6.43758889 26.67834082 6.42777883 29.88866162 6.421875 33.09960938 C6.41270536 35.13021435 6.40232971 37.16081431 6.390625 39.19140625 C6.38425018 40.63828575 6.38425018 40.63828575 6.37774658 42.11439514 C6.36813904 43.00549484 6.35853149 43.89659454 6.34863281 44.81469727 C6.34180481 45.60062759 6.33497681 46.38655792 6.32794189 47.19630432 C6.1875 49.125 6.1875 49.125 5.1875 51.125 C5.0580331 52.91386469 4.98508444 54.70698835 4.94140625 56.5 C4.90853516 57.56734375 4.87566406 58.6346875 4.84179688 59.734375 C4.78060173 61.99468936 4.72330955 64.25511276 4.66992188 66.515625 C4.63576172 67.58296875 4.60160156 68.6503125 4.56640625 69.75 C4.52882202 71.22339844 4.52882202 71.22339844 4.49047852 72.7265625 C4.1875 75.125 4.1875 75.125 2.1875 77.125 C-1.48001147 77.61704511 -3.20613324 77.55013155 -6.26953125 75.40234375 C-7.04683594 74.63019531 -7.82414062 73.85804688 -8.625 73.0625 C-11.85182316 69.94761792 -15.03432671 67.16245199 -18.6875 64.5625 C-23.84238091 60.63714016 -26.01274328 56.32402687 -27.5625 50.125 C-27.645 49.465 -27.7275 48.805 -27.8125 48.125 C-28.1425 48.125 -28.4725 48.125 -28.8125 48.125 C-29.01755665 44.29246871 -29.14070828 40.46136234 -29.25 36.625 C-29.30865234 35.54734375 -29.36730469 34.4696875 -29.42773438 33.359375 C-29.54847556 27.70178803 -29.37940623 24.01739684 -25.59375 19.62890625 C-24.36173169 18.43101976 -23.10309889 17.25952884 -21.8125 16.125 C-20.95785156 15.29871094 -20.10320312 14.47242187 -19.22265625 13.62109375 C-17.58313795 12.18344625 -15.94099766 10.74878584 -14.296875 9.31640625 C-12.70371817 7.91112169 -11.14684371 6.46293538 -9.640625 4.96484375 C-4.70573927 0.15428653 -4.70573927 0.15428653 0 0 Z " fill="#DDE9FC" transform="translate(193.8125,84.875)"/>
<path d="M0 0 C0.33 0 0.66 0 1 0 C1.02312154 12.36918715 1.04091412 24.73836919 1.05181217 37.10757351 C1.05704141 42.85045062 1.0641398 48.59331301 1.07543945 54.33618164 C1.08626687 59.87339995 1.09227652 65.41060404 1.09487724 70.94783211 C1.09673176 73.06544277 1.10035286 75.18305262 1.10573006 77.30065727 C1.11293856 80.25571274 1.11399102 83.21070871 1.11352539 86.16577148 C1.11712067 87.05049637 1.12071594 87.93522125 1.12442017 88.84675598 C1.11405216 94.88594784 1.11405216 94.88594784 0 96 C-0.16197829 98.60665064 -0.27920001 101.2033428 -0.375 103.8125 C-0.74000852 111.68424056 -1.42152122 119.84304244 -5 127 C-5.66 127 -6.32 127 -7 127 C-7.09925781 127.57878906 -7.19851562 128.15757812 -7.30078125 128.75390625 C-9.6418256 136.27402077 -19.05767142 143.39185338 -25.66015625 147.08984375 C-30.2097088 148.85953614 -35.07439222 149.55050576 -39.8671875 150.38671875 C-42.85509837 150.66906835 -42.85509837 150.66906835 -44 152 C-45.38173517 152.10966633 -46.76895582 152.15122624 -48.15496826 152.16494751 C-49.05155151 152.17618149 -49.94813477 152.18741547 -50.87188721 152.19898987 C-51.86388123 152.20631638 -52.85587524 152.21364288 -53.87792969 152.22119141 C-54.91723633 152.2326973 -55.95654297 152.24420319 -57.02734375 152.25605774 C-60.49215678 152.29297067 -63.95698773 152.32251062 -67.421875 152.3515625 C-69.83636726 152.37468807 -72.250857 152.39807849 -74.66534424 152.42172241 C-79.74985401 152.47031648 -84.83438041 152.51519743 -89.91894531 152.55761719 C-96.37951606 152.61187133 -102.83994604 152.67582496 -109.30039597 152.74279213 C-114.30239333 152.79339927 -119.30443048 152.83830036 -124.30649567 152.88163376 C-126.68390842 152.90295835 -129.061306 152.9260623 -131.43868256 152.9510994 C-142.99409981 153.07007097 -154.52079847 153.09150662 -166.06738281 152.56787109 C-166.96049541 152.52832621 -167.85360802 152.48878132 -168.77378464 152.4480381 C-174.87186396 152.12813604 -174.87186396 152.12813604 -176 151 C-178.10149011 150.61028001 -180.2063482 150.23868523 -182.3125 149.875 C-195.87696074 147.05137756 -204.79332997 139.69874044 -212.484375 128.4296875 C-215.25543156 123.98742673 -216.3063342 120.20768143 -216 115 C-216.66 115 -217.32 115 -218 115 C-218.97685365 110.9269597 -219.11545444 107.131793 -219.09765625 102.94921875 C-219.0962413 102.29041214 -219.09482635 101.63160553 -219.09336853 100.95283508 C-219.087805 98.86434238 -219.07525947 96.77595989 -219.0625 94.6875 C-219.05748028 93.26497551 -219.0529182 91.84244934 -219.04882812 90.41992188 C-219.03784757 86.94657923 -219.02060835 83.47330039 -219 80 C-218.67 80 -218.34 80 -218 80 C-217.25461245 86.1361368 -216.92568673 92.08110218 -217.16015625 98.26171875 C-216.95824712 101.71387244 -215.99456057 104.69069703 -215 108 C-214.60194684 109.91538449 -214.20394969 111.83078243 -213.80908203 113.74682617 C-211.44940798 124.63609814 -206.47845281 133.62027214 -197 140 C-185.26729255 146.87719818 -174.57279071 148.30374825 -161.1315918 148.2746582 C-159.894263 148.27976913 -158.6569342 148.28488007 -157.3821106 148.29014587 C-154.0202768 148.3015848 -150.65869129 148.30412824 -147.29685569 148.30158257 C-144.4742815 148.30050431 -141.65172943 148.30541798 -138.82916003 148.310188 C-132.16091044 148.32124148 -125.49271719 148.32174442 -118.82446289 148.31567383 C-111.98242312 148.30964005 -105.1405893 148.3219394 -98.29858464 148.3432439 C-92.39074875 148.36095216 -86.48297786 148.36684675 -80.57511646 148.36360615 C-77.06144619 148.36180746 -73.5479228 148.36428583 -70.03427696 148.37832069 C-66.10830212 148.39341896 -62.18258252 148.38384885 -58.2565918 148.37231445 C-57.11796188 148.37995819 -55.97933197 148.38760193 -54.80619812 148.39547729 C-43.83513482 148.32479739 -33.06617643 146.97449964 -23.671875 140.98828125 C-22 140 -22 140 -20 140 C-20 139.34 -20 138.68 -20 138 C-19.29875 137.484375 -18.5975 136.96875 -17.875 136.4375 C-13.99579928 133.14861243 -11.6590662 129.29541463 -9 125 C-8.59265625 124.38640625 -8.1853125 123.7728125 -7.765625 123.140625 C-3.63005157 116.6076177 -3.85612764 109.1078433 -3.68359375 101.609375 C-3.66276733 100.83020721 -3.64194092 100.05103943 -3.6204834 99.2482605 C-3.55518202 96.74892788 -3.49601502 94.24949996 -3.4375 91.75 C-3.3946584 90.03564339 -3.35177091 88.32128792 -3.30883789 86.60693359 C-3.02901021 75.07027951 -2.8665024 63.54012601 -3 52 C-2.01 52.33 -1.02 52.66 0 53 C0 35.51 0 18.02 0 0 Z " fill="#0781FD" transform="translate(236,82)"/>
<path d="M0 0 C0.99 0.495 0.99 0.495 2 1 C2.97136261 3.91408783 3.12658238 5.77490769 3.12939453 8.80688477 C3.13254669 9.78121964 3.13569885 10.7555545 3.13894653 11.75941467 C3.13591019 13.3345005 3.13591019 13.3345005 3.1328125 14.94140625 C3.13376923 16.02002426 3.13472595 17.09864227 3.13571167 18.20994568 C3.13639236 20.49046894 3.13454581 22.77099413 3.13037109 25.05151367 C3.12501612 28.55196457 3.13032254 32.05228745 3.13671875 35.55273438 C3.13605805 37.76562528 3.13477706 39.97851611 3.1328125 42.19140625 C3.13483673 43.2434877 3.13686096 44.29556915 3.13894653 45.37953186 C3.13421829 46.83630592 3.13421829 46.83630592 3.12939453 48.32250977 C3.12859894 49.17949966 3.12780334 50.03648956 3.12698364 50.91944885 C3 53 3 53 2 55 C2.66 55.33 3.32 55.66 4 56 C3.71114695 61.77706101 1.06842346 66.01254019 -3 70 C-3.99 70 -4.98 70 -6 70 C-6.804375 70.350625 -7.60875 70.70125 -8.4375 71.0625 C-11.3522395 72.12886811 -12.11171213 71.72207197 -15 71 C-15.75747025 71.31402267 -16.51494049 71.62804535 -17.29536438 71.95158386 C-20.16969957 73.06578179 -22.2072232 73.25896229 -25.27416992 73.2746582 C-26.3026152 73.28419022 -27.33106049 73.29372223 -28.39067078 73.30354309 C-29.49280411 73.30263168 -30.59493744 73.30172028 -31.73046875 73.30078125 C-33.44886711 73.30720894 -33.44886711 73.30720894 -35.20198059 73.31376648 C-37.62528829 73.31950508 -40.04861322 73.32001351 -42.47192383 73.31567383 C-46.156717 73.31252629 -49.84069738 73.33593685 -53.52539062 73.36132812 C-55.88541566 73.36360257 -58.24544284 73.36430394 -60.60546875 73.36328125 C-61.69748093 73.372491 -62.7894931 73.38170074 -63.91459656 73.39118958 C-72.32202539 73.34103845 -79.52242652 71.91139817 -87 68 C-87 67.34 -87 66.68 -87 66 C-88.051875 65.896875 -89.10375 65.79375 -90.1875 65.6875 C-93.90212333 65.01764989 -95.867691 63.96887994 -99 62 C-99.99 62.495 -99.99 62.495 -101 63 C-101.99 57.555 -101.99 57.555 -103 52 C-103.66 52 -104.32 52 -105 52 C-105 48.7 -105 45.4 -105 42 C-103 45 -103 45 -101.6875 48.3125 C-98.6303282 55.48625956 -94.03002308 59.13210356 -87 62 C-83.49005896 63.16998035 -80.32246103 63.15531206 -76.67041016 63.16113281 C-75.92697861 63.16609772 -75.18354706 63.17106262 -74.41758728 63.17617798 C-71.95806961 63.19078355 -69.49861642 63.1975987 -67.0390625 63.203125 C-65.3289693 63.20887752 -63.61887612 63.21463524 -61.90878296 63.22039795 C-58.32264913 63.23090319 -54.73653768 63.23674906 -51.15039062 63.24023438 C-46.55809077 63.2457199 -41.96608728 63.26975108 -37.37388039 63.29820633 C-33.84110655 63.3168409 -30.30840401 63.32203873 -26.77558517 63.32357025 C-25.08272048 63.32659516 -23.38985698 63.33461828 -21.69704056 63.34775543 C-19.32725793 63.3648343 -16.95819832 63.36293153 -14.58837891 63.35644531 C-13.89106155 63.3656601 -13.1937442 63.37487488 -12.47529602 63.3843689 C-8.15693624 63.34739383 -5.34748334 62.78637911 -2 60 C-0.02407179 56.4440677 0.24554961 53.40704043 0.22705078 49.38354492 C0.22689972 48.28278122 0.22674866 47.18201752 0.22659302 46.04789734 C0.21627045 44.8706459 0.20594788 43.69339447 0.1953125 42.48046875 C0.1924826 41.26676102 0.18965271 40.05305328 0.18673706 38.80256653 C0.17555308 34.93077689 0.1504513 31.05921959 0.125 27.1875 C0.11496792 24.56055022 0.10584246 21.93359681 0.09765625 19.30664062 C0.07561954 12.87101464 0.04215941 6.43552392 0 0 Z " fill="#0C4ED0" transform="translate(158,102)"/>
<path d="M0 0 C1.2681958 -0.00511093 2.5363916 -0.01022186 3.84301758 -0.01548767 C7.28944009 -0.02875932 10.73575215 -0.02946971 14.18219519 -0.02692437 C17.07445262 -0.02584656 19.96668844 -0.03075854 22.8589412 -0.03552979 C29.69015729 -0.04658405 36.52131838 -0.04708549 43.35253906 -0.04101562 C50.36614395 -0.03497891 57.37954808 -0.04728851 64.39311874 -0.06858569 C70.44616042 -0.08628055 76.49913865 -0.09219071 82.5522052 -0.08894795 C86.1535916 -0.08714747 89.75483474 -0.08964619 93.35619736 -0.10366249 C97.37821965 -0.11873355 101.39984095 -0.10920229 105.421875 -0.09765625 C106.5921524 -0.10529999 107.76242981 -0.11294373 108.96817017 -0.12081909 C118.99386926 -0.05761514 129.26146818 1.19938317 138.09033203 6.2746582 C138.98236328 6.7696582 139.87439453 7.2646582 140.79345703 7.7746582 C142.84033203 9.2746582 142.84033203 9.2746582 143.84033203 12.2746582 C145.17202431 12.61448839 146.50556266 12.94712254 147.84033203 13.2746582 C154.44105465 19.58163138 160.38382391 30.3962792 160.89501953 39.5637207 C160.76221924 46.14682098 160.3302495 52.70976408 159.84033203 59.2746582 C159.51033203 59.2746582 159.18033203 59.2746582 158.84033203 59.2746582 C158.78425781 57.75098633 158.78425781 57.75098633 158.72705078 56.1965332 C158.21259013 44.60844837 157.08219387 34.08898434 150.82861328 24.0168457 C149.84033203 22.2746582 149.84033203 22.2746582 149.84033203 20.2746582 C148.85033203 19.9446582 147.86033203 19.6146582 146.84033203 19.2746582 C145.15159325 17.63035991 143.48727688 15.96081603 141.84033203 14.2746582 C125.99731485 -0.63641679 99.53172859 3.12104439 79.52001953 3.1418457 C77.20370473 3.14117012 74.88739 3.14019799 72.57107544 3.13894653 C67.74529334 3.13748211 62.91952991 3.13958379 58.09375 3.14428711 C51.94700069 3.14999005 45.80029501 3.14669376 39.65354729 3.14071465 C34.87997109 3.13708044 30.10640504 3.13826059 25.33282852 3.14084244 C23.06769938 3.14150348 20.80256928 3.1407125 18.53744125 3.13836288 C-13.67654501 2.27208649 -13.67654501 2.27208649 -40.97216797 17.5871582 C-48.97130567 26.07920051 -51.54673396 35.19523413 -54.15966797 46.2746582 C-54.48966797 46.2746582 -54.81966797 46.2746582 -55.15966797 46.2746582 C-56.42455339 39.6911582 -56.07003046 35.29815434 -53.15966797 29.2746582 C-52.84513672 28.59274414 -52.53060547 27.91083008 -52.20654297 27.20825195 C-46.82603078 15.95614909 -38.40113342 7.57255123 -26.55284309 3.05825329 C-17.87513684 0.21692007 -9.05059033 -0.01909358 0 0 Z " fill="#A2D6FC" transform="translate(74.15966796875,16.725341796875)"/>
<path d="M0 0 C0.33 0 0.66 0 1 0 C1.02505615 0.78648926 1.0501123 1.57297852 1.07592773 2.38330078 C1.19232866 5.96401494 1.31485487 9.5444945 1.4375 13.125 C1.47681641 14.3625 1.51613281 15.6 1.55664062 16.875 C1.59853516 18.07382813 1.64042969 19.27265625 1.68359375 20.5078125 C1.72025146 21.60754395 1.75690918 22.70727539 1.79467773 23.84033203 C1.99696365 26.95327417 2.48104159 29.92666766 3 33 C3.08267176 34.60793362 3.13070697 36.21809805 3.140625 37.828125 C3.00556944 51.80145546 3.00556944 51.80145546 9 64 C14.42616698 69.05728282 19.33193311 70.14998406 26.52905273 70.16113281 C27.67587021 70.16858017 27.67587021 70.16858017 28.84585571 70.17617798 C31.37511087 70.19078376 33.90430335 70.19759824 36.43359375 70.203125 C38.19092307 70.20887687 39.94825238 70.2146346 41.70558167 70.22039795 C45.39006849 70.23090281 49.07453351 70.23674914 52.7590332 70.24023438 C57.48146415 70.24572416 62.2036075 70.26976457 66.92594814 70.29820633 C70.55561671 70.31682217 74.18521578 70.3220377 77.81492805 70.32357025 C79.55606728 70.32659868 81.29720524 70.33463363 83.03829765 70.34775543 C85.47293952 70.3647974 87.90687553 70.36294069 90.34155273 70.35644531 C91.42097389 70.37026749 91.42097389 70.37026749 92.52220154 70.3843689 C95.55230995 70.35902634 97.73146007 70.13794947 100.44552612 68.74372864 C102.35966888 66.59654199 102.5077713 65.59412398 102.5300293 62.74389648 C102.54652023 61.88968613 102.56301117 61.03547577 102.58000183 60.15538025 C102.57809341 59.2365657 102.576185 58.31775116 102.57421875 57.37109375 C102.59546562 55.95293114 102.59546562 55.95293114 102.61714172 54.50611877 C102.65911532 51.48313052 102.67429599 48.46073895 102.6875 45.4375 C102.71652975 42.41096836 102.75105064 39.38458934 102.78999329 36.35816956 C102.8125238 34.47407412 102.82831687 32.5898841 102.83683777 30.70567322 C102.84387222 29.85461502 102.85090668 29.00355682 102.8581543 28.12670898 C102.86163376 27.37630844 102.86511322 26.6259079 102.86869812 25.85276794 C103 24 103 24 104 22 C104.22467831 20.46331135 104.40796805 18.92031946 104.5625 17.375 C104.68818359 16.14910156 104.68818359 16.14910156 104.81640625 14.8984375 C104.87699219 14.27195312 104.93757813 13.64546875 105 13 C105.33 13 105.66 13 106 13 C106.07616325 20.29566754 106.1286476 27.59123224 106.16479492 34.88720703 C106.17986662 37.3683658 106.20032746 39.84949799 106.22631836 42.33056641 C106.26277167 45.90013189 106.27974292 49.46934461 106.29296875 53.0390625 C106.30845261 54.14553131 106.32393646 55.25200012 106.33988953 56.39199829 C106.34208073 66.45506126 106.34208073 66.45506126 103 71 C98.94688536 74.07648067 95.43974678 74.43633434 90.50683594 74.40405273 C89.40088829 74.41434761 89.40088829 74.41434761 88.27259827 74.42485046 C85.84299269 74.44310191 83.41403424 74.43928191 80.984375 74.43359375 C79.2867207 74.43815792 77.58906824 74.44346419 75.89141846 74.44947815 C72.33394872 74.45840717 68.77670347 74.45599039 65.21923828 74.44604492 C60.67879152 74.4345835 56.13912577 74.4547239 51.59878159 74.48396206 C48.09154397 74.50238886 44.58449102 74.50201828 41.0772171 74.49632454 C39.40441038 74.49617196 37.73159063 74.50216314 36.05883026 74.51461601 C24.34110382 74.58953134 15.37165137 73.75686616 6.43359375 65.5 C-0.48991374 58.25578508 -0.28345273 49.34502296 -0.1953125 39.94140625 C-0.1924826 38.79711655 -0.18965271 37.65282684 -0.18673706 36.47386169 C-0.17558578 32.83663257 -0.15049014 29.19965409 -0.125 25.5625 C-0.11496369 23.08919628 -0.10583898 20.61588868 -0.09765625 18.14257812 C-0.07566296 12.09496727 -0.04223564 6.04750155 0 0 Z " fill="#5E79D6" transform="translate(53,92)"/>
<path d="M0 0 C2 3 2 3 3.3125 6.3125 C6.3696718 13.48625956 10.96997692 17.13210356 18 20 C21.50534526 21.16844842 24.66655758 21.1553068 28.3137207 21.16113281 C29.05554596 21.16609772 29.79737122 21.17106262 30.56167603 21.17617798 C33.01638721 21.1907853 35.47103374 21.1975995 37.92578125 21.203125 C39.63347882 21.208878 41.34117637 21.21463572 43.0488739 21.22039795 C46.63081157 21.23090412 50.21272682 21.23674918 53.79467773 21.24023438 C58.37791151 21.24571574 62.9608477 21.26973764 67.54398823 21.29820633 C71.0725134 21.31685814 74.60096728 21.32203968 78.12953758 21.32357025 C79.81878472 21.326592 81.50803074 21.33460438 83.19722939 21.34775543 C85.56441301 21.36486804 87.93087481 21.36292316 90.2980957 21.35644531 C90.99181778 21.3656601 91.68553986 21.37487488 92.40028381 21.3843689 C96.98145469 21.34522629 100.06419778 20.30919981 104 18 C103.9375 20.3125 103.9375 20.3125 103 23 C98.12618128 25.5746002 94.4514712 26.37521464 88.87817383 26.37231445 C88.20392365 26.37596512 87.52967346 26.37961578 86.83499146 26.38337708 C84.62540784 26.39142353 82.41657187 26.37791542 80.20703125 26.36328125 C78.65394593 26.36276163 77.10085994 26.36328327 75.54777527 26.36479187 C72.29729346 26.36470239 69.04706089 26.35432841 65.79663086 26.33618164 C61.66252753 26.31359036 57.52879078 26.31293591 53.39464283 26.31969929 C50.18668961 26.32306855 46.97881748 26.31635252 43.77087975 26.30657005 C42.24849563 26.30276134 40.72610241 26.30155154 39.20371437 26.3031559 C16.40816558 26.30717032 16.40816558 26.30717032 7 21 C6.01 21 5.02 21 4 21 C3.34 17.37 2.68 13.74 2 10 C1.34 10 0.68 10 0 10 C0 6.7 0 3.4 0 0 Z " fill="#073FBF" transform="translate(53,144)"/>
<path d="M0 0 C0.33 0 0.66 0 1 0 C1.33968421 3.81196152 1.67057595 7.6246392 2 11.4375 C2.09539062 12.50677734 2.19078125 13.57605469 2.2890625 14.67773438 C2.81440872 20.81302771 3.10359579 26.84252506 3 33 C3.66 33 4.32 33 5 33 C5.09965569 37.26832981 5.17183391 41.53602469 5.21972656 45.80517578 C5.23971295 47.25418917 5.26691197 48.70312325 5.30175781 50.15185547 C5.65444197 65.20317048 5.65444197 65.20317048 1 72 C-1.875 74.5625 -1.875 74.5625 -5 76 C-8.375 75.75 -8.375 75.75 -11 75 C-11.08121094 74.38640625 -11.16242188 73.7728125 -11.24609375 73.140625 C-11.81193356 70.86169372 -11.81193356 70.86169372 -13.84765625 69.734375 C-14.94400391 69.24710938 -14.94400391 69.24710938 -16.0625 68.75 C-16.79597656 68.41484375 -17.52945313 68.0796875 -18.28515625 67.734375 C-19.13400391 67.37085938 -19.13400391 67.37085938 -20 67 C-20 66.34 -20 65.68 -20 65 C-20.86625 64.649375 -21.7325 64.29875 -22.625 63.9375 C-31.2679384 58.97581314 -33.9806572 51.05802839 -37 42 C-37.03954234 39.66700175 -37.04401732 37.33291811 -37 35 C-36.67 35 -36.34 35 -36 35 C-35.85304687 35.78503906 -35.70609375 36.57007813 -35.5546875 37.37890625 C-33.05285413 49.09726369 -27.82585248 53.61739012 -18.61328125 60.91015625 C-16.54668928 62.56281201 -14.6205186 64.26208953 -12.6875 66.0625 C-10.10930394 68.22890449 -10.10930394 68.22890449 -6.8125 68.5 C-3.61160264 67.93095158 -2.87709942 67.58796166 -1 65 C-0.52493367 62.07345018 -0.52493367 62.07345018 -0.56762695 58.69262695 C-0.54783279 57.39150467 -0.52803864 56.09038239 -0.50764465 54.74983215 C-0.50087483 53.32931665 -0.49442797 51.90879958 -0.48828125 50.48828125 C-0.47143671 49.03523739 -0.45328676 47.58220812 -0.43388367 46.12919617 C-0.38635258 42.30700236 -0.35656365 38.4848677 -0.33044434 34.66247559 C-0.30065427 30.76119299 -0.25411868 26.86011429 -0.20898438 22.95898438 C-0.12291604 15.30609068 -0.05558681 7.65318222 0 0 Z " fill="#1061DF" transform="translate(200,96)"/>
<path d="M0 0 C0.33 0 0.66 0 1 0 C1.02312154 12.36918715 1.04091412 24.73836919 1.05181217 37.10757351 C1.05704141 42.85045062 1.0641398 48.59331301 1.07543945 54.33618164 C1.08626687 59.87339995 1.09227652 65.41060404 1.09487724 70.94783211 C1.09673176 73.06544277 1.10035286 75.18305262 1.10573006 77.30065727 C1.11293856 80.25571274 1.11399102 83.21070871 1.11352539 86.16577148 C1.11712067 87.05049637 1.12071594 87.93522125 1.12442017 88.84675598 C1.11405216 94.88594784 1.11405216 94.88594784 0 96 C-0.23701239 98.85877909 -0.42219182 101.69883297 -0.5625 104.5625 C-0.60568359 105.36880859 -0.64886719 106.17511719 -0.69335938 107.00585938 C-0.79975262 109.00368805 -0.90040888 111.0018207 -1 113 C-2.485 113.495 -2.485 113.495 -4 114 C-3.96970703 112.83243164 -3.93941406 111.66486328 -3.90820312 110.46191406 C-3.79380637 106.02610495 -3.68282818 101.59021517 -3.57275391 97.15429688 C-3.52514772 95.25388358 -3.47667951 93.35349164 -3.42724609 91.453125 C-3.08584807 78.29885002 -2.93561949 65.15866133 -3 52 C-2.01 52.33 -1.02 52.66 0 53 C0 35.51 0 18.02 0 0 Z " fill="#03ACFC" transform="translate(236,82)"/>
<path d="M0 0 C0.86095465 0.00184359 1.72190929 0.00368717 2.60895348 0.00558662 C3.59615883 0.0028373 4.58336418 0.00008797 5.60048485 -0.00274467 C6.6873307 0.00444588 7.77417656 0.01163643 8.89395714 0.01904488 C10.03541695 0.01875282 11.17687675 0.01846077 12.35292625 0.01815987 C16.14060529 0.01955756 19.92808965 0.03513957 23.71573448 0.05078316 C26.33604385 0.05451172 28.95635462 0.05735943 31.57666588 0.0593586 C37.77796892 0.06558065 43.97920164 0.08200121 50.18047369 0.10205758 C57.23962616 0.12439408 64.29878194 0.13540434 71.35796094 0.14544845 C85.88090093 0.16636685 100.40378547 0.20155686 114.92667198 0.24609566 C114.59667198 0.90609566 114.26667198 1.56609566 113.92667198 2.24609566 C101.05158451 2.40078197 88.17643946 2.54894868 75.30118465 2.68905926 C69.32108104 2.75433486 63.34101852 2.82175785 57.36099815 2.89428902 C51.57737123 2.96435579 45.79370481 3.02851981 40.0099678 3.08879089 C37.81624523 3.1126502 35.62254372 3.13854671 33.42887115 3.16662979 C20.87727709 3.32582664 8.44565779 3.2142514 -4.07332802 2.24609566 C-2.07332802 0.24609566 -2.07332802 0.24609566 0 0 Z " fill="#0591FF" transform="translate(69.07332801818848,231.75390434265137)"/>
<path d="M0 0 C0.33 0 0.66 0 1 0 C1 19.14 1 38.28 1 58 C0.01 58.495 0.01 58.495 -1 59 C-2.93874475 52.82025111 -3.14701678 47.32197033 -2.97265625 40.85546875 C-2.85454341 37.92448784 -2.85454341 37.92448784 -4 35 C-4.23446814 30.89976303 -4.18517879 26.79372828 -4.1875 22.6875 C-4.19974609 21.55892578 -4.21199219 20.43035156 -4.22460938 19.26757812 C-4.22654297 18.17251953 -4.22847656 17.07746094 -4.23046875 15.94921875 C-4.23457764 14.95237061 -4.23868652 13.95552246 -4.24291992 12.9284668 C-3.97499795 9.69859337 -3.13459959 7.02550522 -2 4 C-1.34 4 -0.68 4 0 4 C0 2.68 0 1.36 0 0 Z " fill="#0F5DDA" transform="translate(52,94)"/>
<path d="M0 0 C0.680625 0.721875 1.36125 1.44375 2.0625 2.1875 C8.31300551 8.40269192 14.48488144 12.18279248 23.56639099 12.28216553 C24.5999044 12.2784494 24.5999044 12.2784494 25.65429688 12.2746582 C26.76769188 12.2823246 26.76769188 12.2823246 27.90357971 12.29014587 C30.34205323 12.30397587 32.78024208 12.3030904 35.21875 12.30078125 C36.92216089 12.30467123 38.62557081 12.30900653 40.32897949 12.31376648 C43.89301707 12.32121407 47.45695556 12.32094761 51.02099609 12.31567383 C55.58062988 12.30987497 60.13985802 12.3268272 64.69942474 12.3500185 C68.21509153 12.36477149 71.73066089 12.36562552 75.24635315 12.36250877 C76.92721868 12.363021 78.6080898 12.36824011 80.28892517 12.37832069 C82.64145075 12.39070119 84.9931895 12.38388479 87.34570312 12.37231445 C88.03471207 12.37995819 88.72372101 12.38760193 89.43360901 12.39547729 C93.99792068 12.34602996 97.07736034 11.29721852 101 9 C100 12 100 12 97.41766357 13.66026306 C93.61044419 15.15270734 90.34231772 15.44369786 86.31738281 15.43579102 C85.19899521 15.45090477 85.19899521 15.45090477 84.05801392 15.46632385 C81.6062294 15.49469406 79.1550632 15.50067521 76.703125 15.50390625 C74.98687494 15.5135567 73.27062731 15.52364987 71.55438232 15.53416443 C67.96002488 15.55209968 64.36588339 15.55768833 60.77148438 15.5559082 C56.18716333 15.55560389 51.60424214 15.59651468 47.02025223 15.64822483 C43.47521734 15.6817451 39.9305149 15.68766097 36.38533783 15.68607903 C34.69657325 15.68959709 33.00779801 15.70274199 31.31919098 15.72607613 C21.65720038 15.84707047 13.68680795 15.64169758 6 9 C3.78075032 6.79765502 1.67882447 4.64790201 0 2 C0 1.34 0 0.68 0 0 Z " fill="#082392" transform="translate(56,153)"/>
<path d="M0 0 C0.33 0 0.66 0 1 0 C1.14695313 0.78503906 1.29390625 1.57007813 1.4453125 2.37890625 C3.94714587 14.09726369 9.17414752 18.61739012 18.38671875 25.91015625 C20.45331072 27.56281201 22.3794814 29.26208953 24.3125 31.0625 C26.88261482 33.22121875 26.88261482 33.22121875 30.125 33.5 C33.23942595 32.9583607 34.69974626 32.12331115 37 30 C37.36666667 35.5 37.36666667 35.5 35.625 37.875 C34 39 34 39 32 39 C32 39.66 32 40.32 32 41 C30.02 40.67 28.04 40.34 26 40 C25.91878906 39.38640625 25.83757812 38.7728125 25.75390625 38.140625 C25.18806644 35.86169372 25.18806644 35.86169372 23.15234375 34.734375 C22.05599609 34.24710938 22.05599609 34.24710938 20.9375 33.75 C20.20402344 33.41484375 19.47054687 33.0796875 18.71484375 32.734375 C18.14894531 32.49203125 17.58304688 32.2496875 17 32 C17 31.34 17 30.68 17 30 C15.700625 29.4740625 15.700625 29.4740625 14.375 28.9375 C5.7320616 23.97581314 3.0193428 16.05802839 0 7 C-0.03954234 4.66700175 -0.04401732 2.33291811 0 0 Z " fill="#0743C2" transform="translate(163,131)"/>
<path d="M0 0 C20.79 0 41.58 0 63 0 C62 2 62 2 60.26499939 2.61691284 C57.72342608 3.0467779 55.33851674 3.12715881 52.76000977 3.12939453 C51.71535049 3.13254669 50.67069122 3.13569885 49.59437561 3.13894653 C48.47139572 3.1369223 47.34841583 3.13489807 46.19140625 3.1328125 C45.03253403 3.13376923 43.8736618 3.13472595 42.67967224 3.13571167 C40.22940008 3.13639203 37.77912612 3.13454778 35.32885742 3.13037109 C31.58052512 3.12502571 27.83231292 3.1303185 24.08398438 3.13671875 C21.70312474 3.13605785 19.32226517 3.13477644 16.94140625 3.1328125 C15.25997276 3.13584885 15.25997276 3.13584885 13.54457092 3.13894653 C12.49675949 3.13579437 11.44894806 3.13264221 10.36938477 3.12939453 C9.45101334 3.12859894 8.53264191 3.12780334 7.58644104 3.12698364 C4.96761482 2.99841002 2.55358132 2.58036021 0 2 C0 1.34 0 0.68 0 0 Z " fill="#0658E2" transform="translate(80,172)"/>
<path d="M0 0 C0.33 0 0.66 0 1 0 C1.12117187 0.73605469 1.24234375 1.47210938 1.3671875 2.23046875 C1.53476563 3.20628906 1.70234375 4.18210938 1.875 5.1875 C2.03742188 6.15042969 2.19984375 7.11335937 2.3671875 8.10546875 C2.99508226 10.97750591 3.6393223 13.39128348 5 16 C6.32678278 16.67960995 7.66103936 17.34470875 9 18 C10.18818796 18.97227532 11.34133244 19.98854148 12.4609375 21.0390625 C13.41613281 21.90917969 13.41613281 21.90917969 14.390625 22.796875 C15.71323384 24.01534141 17.02839081 25.2419467 18.3359375 26.4765625 C22.30354687 30.09677102 22.30354687 30.09677102 27.4140625 31.4609375 C29.9224856 31.26819773 29.9224856 31.26819773 31 30 C31.13340015 28.2440337 31.20343476 26.48316568 31.24609375 24.72265625 C31.27896484 23.65208984 31.31183594 22.58152344 31.34570312 21.47851562 C31.40679341 19.20517703 31.46409864 16.9317335 31.51757812 14.65820312 C31.55173828 13.58634766 31.58589844 12.51449219 31.62109375 11.41015625 C31.65867798 9.92721069 31.65867798 9.92721069 31.69702148 8.41430664 C32 6 32 6 34 4 C34.11608127 8.41644598 34.1872132 12.83250017 34.25 17.25 C34.30027344 19.13138672 34.30027344 19.13138672 34.3515625 21.05078125 C34.36445313 22.25605469 34.37734375 23.46132812 34.390625 24.703125 C34.41157227 25.81333008 34.43251953 26.92353516 34.45410156 28.06738281 C33.89595109 31.6719546 32.86095126 32.80936588 30 35 C27.21484375 35.6328125 27.21484375 35.6328125 24 35 C21.25585307 33.23909051 18.9384148 31.09864355 16.5625 28.875 C15.29309207 27.72642619 14.02356134 26.57798809 12.75390625 25.4296875 C12.13539795 24.85968018 11.51688965 24.28967285 10.87963867 23.70239258 C8.46417617 21.51470327 5.9690246 19.43031698 3.45458984 17.35766602 C-0.00571061 14.1279361 -0.93768416 10.91915859 -1.25 6.3125 C-1 3 -1 3 0 0 Z " fill="#6C89DB" transform="translate(166,130)"/>
<path d="M0 0 C0.33 0 0.66 0 1 0 C1.07616325 7.29566754 1.1286476 14.59123224 1.16479492 21.88720703 C1.17986662 24.3683658 1.20032746 26.84949799 1.22631836 29.33056641 C1.26277167 32.90013189 1.27974292 36.46934461 1.29296875 40.0390625 C1.30845261 41.14553131 1.32393646 42.25200012 1.33988953 43.39199829 C1.34110236 48.96193787 1.32072214 53.26613 -2 58 C-4.1875 58.875 -4.1875 58.875 -6 59 C-6.33 58.34 -6.66 57.68 -7 57 C-6.35184326 56.70359619 -5.70368652 56.40719238 -5.03588867 56.10180664 C-1.74951649 52.70902836 -2.41633326 48.91986418 -2.42578125 44.37109375 C-2.41161667 43.42565201 -2.39745209 42.48021027 -2.38285828 41.50611877 C-2.34088468 38.48313052 -2.32570401 35.46073895 -2.3125 32.4375 C-2.28347025 29.41096836 -2.24894936 26.38458934 -2.21000671 23.35816956 C-2.1874762 21.47407412 -2.17168313 19.5898841 -2.16316223 17.70567322 C-2.15612778 16.85461502 -2.14909332 16.00355682 -2.1418457 15.12670898 C-2.13836624 14.37630844 -2.13488678 13.6259079 -2.13130188 12.85276794 C-2 11 -2 11 -1 9 C-0.77532169 7.46331135 -0.59203195 5.92031946 -0.4375 4.375 C-0.35371094 3.55773437 -0.26992187 2.74046875 -0.18359375 1.8984375 C-0.12300781 1.27195312 -0.06242188 0.64546875 0 0 Z " fill="#768FD6" transform="translate(158,105)"/>
<path d="M0 0 C0.33 0 0.66 0 1 0 C1.02529825 6.37206172 1.04284496 12.74411054 1.05493164 19.11621094 C1.05996891 21.28516117 1.06679891 23.454108 1.07543945 25.62304688 C1.08753151 28.73568563 1.09323428 31.8482796 1.09765625 34.9609375 C1.10281754 35.934935 1.10797882 36.9089325 1.11329651 37.91244507 C1.11337204 38.81322784 1.11344757 39.71401062 1.11352539 40.64208984 C1.115746 41.43706879 1.11796661 42.23204773 1.12025452 43.05111694 C1 45 1 45 0 47 C-0.15306901 48.81171098 -0.24946661 50.6283794 -0.31640625 52.4453125 C-0.37924805 54.05986328 -0.37924805 54.05986328 -0.44335938 55.70703125 C-0.48267578 56.83496094 -0.52199219 57.96289062 -0.5625 59.125 C-0.60568359 60.26066406 -0.64886719 61.39632812 -0.69335938 62.56640625 C-0.7996604 65.37747768 -0.90169405 68.18863945 -1 71 C-1.33 71 -1.66 71 -2 71 C-2.02533721 63.52523522 -2.0428615 56.0504815 -2.05493164 48.57568359 C-2.05996305 46.03238511 -2.06678881 43.48908953 -2.07543945 40.94580078 C-2.08755706 37.29198492 -2.09324022 33.63820728 -2.09765625 29.984375 C-2.10281754 28.84570984 -2.10797882 27.70704468 -2.11329651 26.53387451 C-2.11337204 25.47307678 -2.11344757 24.41227905 -2.11352539 23.31933594 C-2.115746 22.38667908 -2.11796661 21.45402222 -2.12025452 20.49310303 C-2.00798191 18.16548013 -1.60909313 16.23754121 -1 14 C-0.77882441 11.5861824 -0.59427758 9.16885403 -0.4375 6.75 C-0.35371094 5.48671875 -0.26992187 4.2234375 -0.18359375 2.921875 C-0.12300781 1.95765625 -0.06242188 0.9934375 0 0 Z " fill="#ACBEEB" transform="translate(199,89)"/>
<path d="M0 0 C0.33 0 0.66 0 1 0 C1.02505615 0.78648926 1.0501123 1.57297852 1.07592773 2.38330078 C1.19232866 5.96401494 1.31485487 9.5444945 1.4375 13.125 C1.47681641 14.3625 1.51613281 15.6 1.55664062 16.875 C1.59853516 18.07382813 1.64042969 19.27265625 1.68359375 20.5078125 C1.72025146 21.60754395 1.75690918 22.70727539 1.79467773 23.84033203 C1.9969906 26.95368894 2.47719636 29.92681483 3 33 C3.10364443 34.63103597 3.17495077 36.26450805 3.2109375 37.8984375 C3.23929688 38.79046875 3.26765625 39.6825 3.296875 40.6015625 C3.34873268 42.44251026 3.39307046 44.28368605 3.4296875 46.125 C3.63452692 52.04827317 4.61892857 56.56300802 7 62 C6.01 62 5.02 62 4 62 C-0.1270938 52.48974037 -0.1270938 52.48974037 -0.11352539 46.88598633 C-0.11344986 45.84513382 -0.11337433 44.80428131 -0.11329651 43.73188782 C-0.10813522 42.60993515 -0.10297394 41.48798248 -0.09765625 40.33203125 C-0.0962413 39.18208176 -0.09482635 38.03213226 -0.09336853 36.84733582 C-0.08776429 33.16903092 -0.07521104 29.49078655 -0.0625 25.8125 C-0.05748555 23.32096442 -0.05292255 20.82942789 -0.04882812 18.33789062 C-0.03779347 12.22523971 -0.02105118 6.11262418 0 0 Z " fill="#8C9FDB" transform="translate(53,92)"/>
<path d="M0 0 C0.66 0 1.32 0 2 0 C2 9.9 2 19.8 2 30 C1.34 30 0.68 30 0 30 C-0.66 31.32 -1.32 32.64 -2 34 C-2.05823729 29.4583875 -2.09367675 24.9168716 -2.125 20.375 C-2.15013672 18.44720703 -2.15013672 18.44720703 -2.17578125 16.48046875 C-2.18222656 15.23652344 -2.18867187 13.99257812 -2.1953125 12.7109375 C-2.21102295 10.99849854 -2.21102295 10.99849854 -2.22705078 9.25146484 C-1.99052625 5.86433183 -1.2095701 3.15994958 0 0 Z " fill="#2975E8" transform="translate(50,98)"/>
<path d="M0 0 C0.33 0 0.66 0 1 0 C1.8458757 15.34660191 2.13154919 30.63100688 2 46 C1.34 46 0.68 46 0 46 C0 47.98 0 49.96 0 52 C-0.33 52 -0.66 52 -1 52 C-1.02519797 47.32674529 -1.04308849 42.65353228 -1.05493164 37.98022461 C-1.05988196 36.39883737 -1.06664392 34.81745451 -1.07543945 33.23608398 C-1.13562113 22.11663502 -0.78342092 11.09242761 0 0 Z " fill="#4AA8FF" transform="translate(234,59)"/>
<path d="M0 0 C2.28899176 3.43348764 2.92495987 6.59203242 3.6875 10.5625 C3.82994141 11.24763672 3.97238281 11.93277344 4.11914062 12.63867188 C5.12669335 17.7466133 5.12669335 17.7466133 4 20 C4.66 20 5.32 20 6 20 C7.86672916 25.60018749 6.54133051 31.74791695 4 37 C3.67 37 3.34 37 3 37 C1.515 18.685 1.515 18.685 0 0 Z " fill="#2D79EC" transform="translate(200,92)"/>
<path d="M0 0 C0.66 0 1.32 0 2 0 C9.42335333 13.41651932 9.10888084 23.1409967 8 38 C7.67 38 7.34 38 7 38 C6.94392578 36.47632812 6.94392578 36.47632812 6.88671875 34.921875 C6.41042291 24.24686204 5.61658235 14.33503991 0 5 C-0.1875 2.1875 -0.1875 2.1875 0 0 Z " fill="#7CC8FE" transform="translate(226,38)"/>
<path d="M0 0 C1.9248398 2.8872597 2.43391964 4.5200113 3.1875 7.8125 C4.74097112 13.24172304 7.29135082 16.00266633 12 19 C12.71285156 19.3196875 13.42570312 19.639375 14.16015625 19.96875 C16 21 16 21 17 24 C12.55725661 23.48340193 9.78311297 22.31190237 6 20 C5.34 20.33 4.68 20.66 4 21 C3.34 17.37 2.68 13.74 2 10 C1.34 10 0.68 10 0 10 C0 6.7 0 3.4 0 0 Z " fill="#0748CA" transform="translate(53,144)"/>
<path d="M0 0 C0.33 0 0.66 0 1 0 C1.14695313 0.78503906 1.29390625 1.57007813 1.4453125 2.37890625 C3.94647302 14.09411215 9.17240098 18.62952709 18.39453125 25.91015625 C20.44551883 27.55525123 22.30298311 29.23993983 24.1875 31.0625 C28.05723853 33.72831988 30.38373286 33.39795406 35 33 C34.505 33.99 34.505 33.99 34 35 C29.24636989 35.46338782 26.28051117 35.68291102 22.47265625 32.62109375 C21.31805552 31.57937993 20.18171818 30.51713938 19.0625 29.4375 C17.8508832 28.3234238 16.63734246 27.21143632 15.421875 26.1015625 C14.54885742 25.29380371 14.54885742 25.29380371 13.65820312 24.46972656 C11.50283088 22.55934068 9.18165325 20.94613182 6.8125 19.3125 C2.41309045 15.95161278 0.85596839 12.41162239 0 7 C-0.18494776 4.60008266 -0.15391459 2.41132856 0 0 Z " fill="#0F2793" transform="translate(163,131)"/>
<path d="M0 0 C0.66 0.33 1.32 0.66 2 1 C1.71114695 6.77706101 -0.93157654 11.01254019 -5 15 C-5.99 15 -6.98 15 -8 15 C-9.68236471 15.62599617 -11.3523962 16.28752268 -13 17 C-13.33 15.68 -13.66 14.36 -14 13 C-13.31292969 12.79246094 -12.62585938 12.58492187 -11.91796875 12.37109375 C-6.6857087 10.75039124 -6.6857087 10.75039124 -2.703125 7.24609375 C-1.80659244 5.15933883 -1.80659244 5.15933883 -1 2 C-0.67 1.34 -0.34 0.68 0 0 Z " fill="#065AE2" transform="translate(160,157)"/>
<path d="M0 0 C0.33 0 0.66 0 1 0 C1.12117187 0.73605469 1.24234375 1.47210938 1.3671875 2.23046875 C1.53476563 3.20628906 1.70234375 4.18210938 1.875 5.1875 C2.03742188 6.15042969 2.19984375 7.11335937 2.3671875 8.10546875 C2.98484354 10.93067323 3.7653818 13.38687952 5 16 C6.79932579 17.06716704 6.79932579 17.06716704 9 18 C11.07036736 19.59337096 13.02144798 21.29125053 15 23 C14.67 23.66 14.34 24.32 14 25 C8.2292452 22.36636694 3.51113182 18.26669773 0 13 C-1.53102253 8.40693241 -1.52690413 4.58071238 0 0 Z " fill="#7690DD" transform="translate(166,130)"/>
<path d="M0 0 C0.33 0 0.66 0 1 0 C1.19477739 1.62414378 1.38059458 3.24936423 1.5625 4.875 C1.66691406 5.77992187 1.77132813 6.68484375 1.87890625 7.6171875 C2 10 2 10 1 12 C0.91573906 13.6674606 0.89274857 15.33825187 0.90234375 17.0078125 C0.90556641 17.99394531 0.90878906 18.98007813 0.91210938 19.99609375 C0.92048828 21.02863281 0.92886719 22.06117187 0.9375 23.125 C0.94201172 24.16527344 0.94652344 25.20554687 0.95117188 26.27734375 C0.96298048 28.85161962 0.97944925 31.42578146 1 34 C0.34 34 -0.32 34 -1 34 C-1.02465288 29.31860746 -1.04283739 24.63725241 -1.05493164 19.95581055 C-1.05997157 18.36205386 -1.0668035 16.76830181 -1.07543945 15.17456055 C-1.08751999 12.88849747 -1.09323155 10.60249533 -1.09765625 8.31640625 C-1.10281754 7.59973282 -1.10797882 6.88305939 -1.11329651 6.14466858 C-1.11349263 4.42936328 -1.06192007 2.71418734 -1 1 C-0.67 0.67 -0.34 0.34 0 0 Z " fill="#65ADFA" transform="translate(18,58)"/>
<path d="M0 0 C-1.40038461 2.80076922 -3.20028243 3.23024803 -6 4.5625 C-9.22327135 5.95256517 -9.22327135 5.95256517 -12 8 C-13.66617115 8.04063832 -15.33388095 8.042721 -17 8 C-17 7.34 -17 6.68 -17 6 C-14.55078125 4.23828125 -14.55078125 4.23828125 -11.3125 2.3125 C-10.25675781 1.66925781 -9.20101562 1.02601562 -8.11328125 0.36328125 C-4.74672129 -1.11090875 -3.42105744 -1.14881521 0 0 Z " fill="#A4D7FE" transform="translate(52,21)"/>
<path d="M0 0 C0.33 0 0.66 0 1 0 C1.36666667 5.5 1.36666667 5.5 -0.375 7.875 C-2 9 -2 9 -4 9 C-4 9.66 -4 10.32 -4 11 C-6.97 10.505 -6.97 10.505 -10 10 C-10 8.68 -10 7.36 -10 6 C-8.72125 5.7525 -7.4425 5.505 -6.125 5.25 C-2.73252682 4.48009414 -2.73252682 4.48009414 -0.5 1.875 C-0.335 1.25625 -0.17 0.6375 0 0 Z " fill="#0952D5" transform="translate(199,161)"/>
<path d="M0 0 C0.66 0.33 1.32 0.66 2 1 C1.89020915 4.60479946 1.75955955 8.20854679 1.625 11.8125 C1.5940625 12.83666016 1.563125 13.86082031 1.53125 14.91601562 C1.49257812 15.89892578 1.45390625 16.88183594 1.4140625 17.89453125 C1.36693115 19.25348511 1.36693115 19.25348511 1.31884766 20.63989258 C1 23 1 23 -1 26 C-1.02892857 22.04168191 -1.04677427 18.08339083 -1.0625 14.125 C-1.07087891 12.99707031 -1.07925781 11.86914062 -1.08789062 10.70703125 C-1.09111328 9.63066406 -1.09433594 8.55429688 -1.09765625 7.4453125 C-1.10289307 6.45031738 -1.10812988 5.45532227 -1.11352539 4.43017578 C-1 2 -1 2 0 0 Z " fill="#B3C6EE" transform="translate(166,107)"/>
<path d="M0 0 C2.92183307 1.32984963 5.08447758 2.82630723 7.4375 5 C10.14498434 7.39238918 12.49223168 8.9370399 16 10 C16 10.33 16 10.66 16 11 C12.06204314 11.42067195 10.36917581 11.24290419 7.0078125 9.03125 C5.58082031 7.77828125 5.58082031 7.77828125 4.125 6.5 C3.15820312 5.6646875 2.19140625 4.829375 1.1953125 3.96875 C0.47085938 3.3190625 -0.25359375 2.669375 -1 2 C-0.67 1.34 -0.34 0.68 0 0 Z " fill="#6784DA" transform="translate(180,154)"/>
<path d="M0 0 C0.33 0 0.66 0 1 0 C1 5.94 1 11.88 1 18 C0.01 17.67 -0.98 17.34 -2 17 C-2.25287193 10.93107371 -1.69832609 5.83799592 0 0 Z " fill="#2599FE" transform="translate(235,117)"/>
<path d="M0 0 C2.09685655 3.14528482 2.71501676 5.41077903 3.5625 9.0625 C4.46559324 13.14550931 4.46559324 13.14550931 6 17 C5.34 18.32 4.68 19.64 4 21 C3.34 17.37 2.68 13.74 2 10 C1.34 10 0.68 10 0 10 C0 6.7 0 3.4 0 0 Z " fill="#0D50CE" transform="translate(53,144)"/>
<path d="M0 0 C0.33 0 0.66 0 1 0 C1.12117187 0.74765625 1.24234375 1.4953125 1.3671875 2.265625 C1.53476563 3.25046875 1.70234375 4.2353125 1.875 5.25 C2.03742188 6.22453125 2.19984375 7.1990625 2.3671875 8.203125 C2.94855848 10.77264117 3.70840265 12.72071056 5 15 C2.48087612 14.66411682 1.32803881 14.42645046 -0.25 12.375 C-1.59594233 8.11284927 -1.40257857 4.20773572 0 0 Z " fill="#8FA7E5" transform="translate(166,130)"/>
<path d="M0 0 C0.33 0 0.66 0 1 0 C1.25408976 3.79043181 1.47403593 7.58208053 1.6875 11.375 C1.76033203 12.45523438 1.83316406 13.53546875 1.90820312 14.6484375 C1.96298828 15.6796875 2.01777344 16.7109375 2.07421875 17.7734375 C2.13182373 18.72653809 2.18942871 19.67963867 2.2487793 20.66162109 C2.16668213 21.43328613 2.08458496 22.20495117 2 23 C1.01 23.66 0.02 24.32 -1 25 C-0.67 16.75 -0.34 8.5 0 0 Z " fill="#66B2FC" transform="translate(234,59)"/>
<path d="M0 0 C1.0825154 3.2475462 0.98903488 5.18260904 0.6875 8.5625 C0.60886719 9.53316406 0.53023437 10.50382812 0.44921875 11.50390625 C0 14 0 14 -2 16 C-3.19937786 9.62740199 -3.06475363 5.76173683 0 0 Z " fill="#85C9FE" transform="translate(21,47)"/>
<path d="M0 0 C2 1 2 1 3.0703125 3.72265625 C3.41835938 4.82480469 3.76640625 5.92695313 4.125 7.0625 C4.47820313 8.16722656 4.83140625 9.27195313 5.1953125 10.41015625 C5.46085937 11.26480469 5.72640625 12.11945313 6 13 C5.01 13 4.02 13 3 13 C0.78145293 8.37802694 -0.38281159 5.23175837 0 0 Z " fill="#7A95E0" transform="translate(54,141)"/>
<path d="M0 0 C2.31590289 3.47385433 2.26991835 4.96430006 2.25 9.0625 C2.25515625 10.12597656 2.2603125 11.18945312 2.265625 12.28515625 C2 15 2 15 0 17 C-0.19493195 14.72979256 -0.38070418 12.45879711 -0.5625 10.1875 C-0.66691406 8.92292969 -0.77132812 7.65835938 -0.87890625 6.35546875 C-1 3 -1 3 0 0 Z " fill="#C2D2EF" transform="translate(156,99)"/>
<path d="M0 0 C0.33 0 0.66 0 1 0 C1.07654536 4.51617599 1.10228696 8.59085217 0 13 C-0.66 13 -1.32 13 -2 13 C-2.05391993 11.20866022 -2.09275571 9.41686101 -2.125 7.625 C-2.14820313 6.62726563 -2.17140625 5.62953125 -2.1953125 4.6015625 C-2 2 -2 2 0 0 Z " fill="#57AEFF" transform="translate(235,82)"/>
<path d="M0 0 C0.66 0 1.32 0 2 0 C6.06153846 6.27692308 6.06153846 6.27692308 5.75 9.9375 C5.5025 10.618125 5.255 11.29875 5 12 C1.89991379 9.46356583 1.0325325 6.81242771 0 3 C0 2.01 0 1.02 0 0 Z " fill="#8AC4FD" transform="translate(226,38)"/>
<path d="M0 0 C2 0 2 0 4.5 2.375 C5.325 3.24125 6.15 4.1075 7 5 C7.66 5.66 8.32 6.32 9 7 C8.01 7.33 7.02 7.66 6 8 C4.17578125 6.78515625 4.17578125 6.78515625 2.3125 5.0625 C1.68988281 4.49660156 1.06726562 3.93070313 0.42578125 3.34765625 C-0.04472656 2.90292969 -0.51523437 2.45820313 -1 2 C-0.67 1.34 -0.34 0.68 0 0 Z " fill="#6885DA" transform="translate(59,154)"/>
<path d="M0 0 C-1.55603771 3.81936528 -3.95604931 6.26044438 -7 9 C-7.66 9 -8.32 9 -9 9 C-7.45665977 5.21180126 -4.44676575 0 0 0 Z " fill="#CFDDF5" transform="translate(176,99)"/>
<path d="M0 0 C0.66 0 1.32 0 2 0 C2.66 2.97 3.32 5.94 4 9 C3.01 9.495 3.01 9.495 2 10 C-0.4294516 6.3558226 -0.16179575 4.28758728 0 0 Z " fill="#76B5F7" transform="translate(231,47)"/>
<path d="M0 0 C0.33 0 0.66 0 1 0 C1.20496094 0.84304687 1.40992188 1.68609375 1.62109375 2.5546875 C1.89050781 3.65039062 2.15992188 4.74609375 2.4375 5.875 C2.70433594 6.96554688 2.97117188 8.05609375 3.24609375 9.1796875 C3.8786478 11.92484721 3.8786478 11.92484721 5 14 C4.34 14.66 3.68 15.32 3 16 C0.89424625 10.47239641 -0.37851209 5.93002267 0 0 Z " fill="#1146BC" transform="translate(163,131)"/>
<path d="M0 0 C0.66 0.33 1.32 0.66 2 1 C1.45773019 4.79588866 -0.20127563 6.47211993 -3 9 C-2.44271087 5.65626525 -1.64826111 2.96687001 0 0 Z " fill="#0757DB" transform="translate(160,157)"/>
<path d="M0 0 C0.66 0.33 1.32 0.66 2 1 C-0.31 3.64 -2.62 6.28 -5 9 C-5.33 8.34 -5.66 7.68 -6 7 C-4.02 4.69 -2.04 2.38 0 0 Z " fill="#EDF3FB" transform="translate(188,87)"/>
<path d="M0 0 C1.32 0.66 2.64 1.32 4 2 C4 3.65 4 5.3 4 7 C3.01 6.34 2.02 5.68 1 5 C1 4.34 1 3.68 1 3 C0.01 2.67 -0.98 2.34 -2 2 C-1.34 1.34 -0.68 0.68 0 0 Z " fill="#93D1FE" transform="translate(223,34)"/>
<path d="M0 0 C0.66 0.33 1.32 0.66 2 1 C2 1.66 2 2.32 2 3 C1.34 3 0.68 3 0 3 C-0.2165625 3.928125 -0.2165625 3.928125 -0.4375 4.875 C-1 7 -1 7 -2 9 C-2.99 8.67 -3.98 8.34 -5 8 C-3.35 5.36 -1.7 2.72 0 0 Z " fill="#0570F7" transform="translate(229,206)"/>
<path d="M0 0 C0.33 0 0.66 0 1 0 C1.125 7.75 1.125 7.75 0 10 C-0.66 10 -1.32 10 -2 10 C-2 8.02 -2 6.04 -2 4 C-1.34 4 -0.68 4 0 4 C0 2.68 0 1.36 0 0 Z " fill="#0578F2" transform="translate(233,193)"/>
<path d="M0 0 C3.55780196 0.60990891 6.6828589 1.5783681 10 3 C10 3.33 10 3.66 10 4 C7.25 4.25 7.25 4.25 4 4 C1.625 2 1.625 2 0 0 Z " fill="#536FD2" transform="translate(186,161)"/>
</svg>
